<svg id="inverter" width="40" height="40" viewBox="0 0 40 40" fill="none" xmlns="http://www.w3.org/2000/svg">
<rect x="10.6667" y="7.3335" width="18.6667" height="25.3333" stroke="#333333" stroke-width="2"/>
<path d="M10.6667 25.3335H29.3334" stroke="#333333" stroke-width="2"/>
<path d="M23.9799 20.6667V21.6667H24.4063L24.7015 21.359L23.9799 20.6667ZM16.0201 20.6667L15.2986 21.359L15.5938 21.6667H16.0201V20.6667ZM24.5152 16.8486C24.5152 18.0622 24.0377 19.1621 23.2584 19.9743L24.7015 21.359C25.8238 20.1894 26.5152 18.5987 26.5152 16.8486H24.5152ZM20 12.3335C22.4937 12.3335 24.5152 14.355 24.5152 16.8486H26.5152C26.5152 13.2504 23.5982 10.3335 20 10.3335V12.3335ZM15.4849 16.8486C15.4849 14.355 17.5064 12.3335 20 12.3335V10.3335C16.4018 10.3335 13.4849 13.2504 13.4849 16.8486H15.4849ZM16.7416 19.9743C15.9623 19.1621 15.4849 18.0622 15.4849 16.8486H13.4849C13.4849 18.5987 14.1762 20.1894 15.2986 21.359L16.7416 19.9743ZM16.0201 21.6667H23.9799V19.6667H16.0201V21.6667Z" fill="#333333"/>
<rect x="18" y="14.6665" width="4" height="2.66667" fill="#333333" fill-opacity="0.4"/>
</svg>
