<svg width="36" height="36" viewBox="0 0 36 36" fill="none" xmlns="http://www.w3.org/2000/svg">
<path d="M10.9175 13.3486V27.2322H20.48M25.0842 13.3486V15.4312" stroke="#333333" stroke-width="2"/>
<path d="M28.625 16.1249L18 7.10059L7.375 16.1249" stroke="#333333" stroke-width="2"/>
<rect x="17.4397" y="13.8779" width="1.11842" height="1.11842" stroke="#333333" stroke-width="2"/>
<path d="M25.717 22.6178C26.3321 22.012 26.9472 21.0531 26.9472 20.0671C26.9472 18.4646 25.5702 17.1655 23.8716 17.1655C22.1729 17.1655 20.7959 18.4646 20.7959 20.0671C20.7959 21.0531 21.411 22.012 22.0262 22.6178C22.6413 23.2237 22.6413 24.4353 22.6413 24.4353H25.1018C25.1018 24.4353 25.1018 23.2237 25.717 22.6178Z" stroke="#333333" stroke-width="2"/>
<path d="M21.9141 27.231H25.8285" stroke="#333333" stroke-width="2"/>
</svg>
