<svg width="36" height="36" viewBox="0 0 36 36" fill="none" xmlns="http://www.w3.org/2000/svg">
<path fill-rule="evenodd" clip-rule="evenodd" d="M11.6175 13.8755H10.764L10.6299 14.7183L8.80425 26.1911L8.62012 27.3482H9.79183H26.831H28.0027L27.8186 26.1911L25.993 14.7183L25.8589 13.8755H25.0054H11.6175ZM11.9338 19.2507L12.4709 15.8755H14.9623L14.7116 19.2507H11.9338ZM16.7171 19.2507L16.9678 15.8755H19.6556L19.9062 19.2507H16.7171ZM20.0548 21.2507H16.5686L16.2643 25.3482H20.359L20.0548 21.2507ZM22.3645 25.3482L22.0603 21.2507H25.0073L25.6593 25.3482H22.3645ZM21.9117 19.2507L21.6611 15.8755H24.152L24.689 19.2507H21.9117ZM11.6156 21.2507H14.5631L14.2588 25.3482H10.9635L11.6156 21.2507Z" fill="#333333"/>
<path d="M20.7327 7.16602L20.7327 8.67558" stroke="#333333" stroke-width="2"/>
<path d="M24.4688 8.71338L23.4013 9.78081" stroke="#333333" stroke-width="2"/>
<path d="M26.0162 12.4497L24.5066 12.4497M15.4492 12.4497L16.9588 12.4497" stroke="#333333" stroke-width="2"/>
<path d="M16.9968 8.71338L18.0643 9.78081" stroke="#333333" stroke-width="2"/>
<path fill-rule="evenodd" clip-rule="evenodd" d="M19.4678 12.4494C19.4678 11.7511 20.0338 11.1851 20.7321 11.1851C21.4304 11.1851 21.9965 11.7511 21.9965 12.4494C21.9965 12.7321 21.9037 12.9931 21.747 13.2037H23.9089C23.9662 12.9616 23.9965 12.709 23.9965 12.4494C23.9965 10.6466 22.535 9.18506 20.7321 9.18506C18.9293 9.18506 17.4678 10.6466 17.4678 12.4494C17.4678 12.709 17.4981 12.9616 17.5553 13.2037H19.7173C19.5605 12.9931 19.4678 12.7321 19.4678 12.4494Z" fill="#333333"/>
</svg>
